<?xml version="1.0" encoding="utf-8"?>
<!-- Generator: Adobe Illustrator 16.0.0, SVG Export Plug-In . SVG Version: 6.00 Build 0)  -->
<!DOCTYPE svg PUBLIC "-//W3C//DTD SVG 1.1//EN" "http://www.w3.org/Graphics/SVG/1.1/DTD/svg11.dtd">
<svg version="1.1" id="Layer_1" xmlns="http://www.w3.org/2000/svg" xmlns:xlink="http://www.w3.org/1999/xlink" x="0px" y="0px"
	 width="200px" height="200px" viewBox="0 0 200 200" enable-background="new 0 0 200 200" xml:space="preserve">
<g>
	<path fill-rule="evenodd" clip-rule="evenodd" fill="#FFDD15" d="M4.8,116.027c7.175,0,14.163,0,21.525,0c0-1.025,0-1.912,0-2.799
		c0-29.594-0.007-59.185,0.022-88.778c0-2.037,0.118-4.111,0.521-6.101c1.108-5.436,4.758-8.312,10.03-9.278
		c1.593-0.29,3.24-0.385,4.862-0.386c39.361-0.02,78.726-0.025,118.087,0.012c2.248,0.002,4.538,0.216,6.74,0.67
		c5.51,1.14,8.645,4.917,8.978,10.556c0.102,1.694,0.131,3.396,0.131,5.093c0.008,29.239,0.008,58.478,0.008,87.716
		c0,0.917,0,1.833,0,3.024c6.731,0,13.344,0,20.121,0c0,18.715,0,37.153,0,55.846c-5.307,0-10.711,0-16.358,0
		c0,7.49,0,14.736,0,22.084c-8.996,0-17.749,0-26.773,0c0-7.234,0-14.474,0-21.849c-35.354,0-70.435,0-105.769,0
		c0,7.201,0,14.447,0,21.822c-9.053,0-17.863,0-26.962,0c0-7.285,0-14.529,0-21.991c-5.208,0-10.131,0-15.163,0
		C4.8,153.077,4.8,134.695,4.8,116.027z M93.81,90.122c0-13.692,0-27.157,0-40.577c-18.131,0-36.078,0-53.991,0
		c0,13.622,0,27.094,0,40.577C57.884,90.122,75.782,90.122,93.81,90.122z M161.63,90.11c0-13.684,0-27.144,0-40.597
		c-18.072,0-35.948,0-53.904,0c0,13.586,0,27.051,0,40.597C125.748,90.11,143.632,90.11,161.63,90.11z M66.908,35.816
		c22.731,0,45.263,0,67.793,0c0-4.496,0-8.831,0-13.066c-22.715,0-45.251,0-67.793,0C66.908,27.159,66.908,31.395,66.908,35.816z
		 M168.338,125.328c-6.964-0.056-12.608,5.432-12.706,12.36c-0.096,6.832,5.496,12.553,12.44,12.719
		c6.768,0.163,12.609-5.578,12.666-12.452C180.795,130.985,175.291,125.386,168.338,125.328z M20.484,137.815
		c-0.003,6.913,5.633,12.588,12.514,12.598c6.803,0.005,12.598-5.785,12.6-12.59c0.003-6.879-5.658-12.5-12.595-12.5
		C26.024,125.323,20.486,130.851,20.484,137.815z M134.813,117.795c-22.772,0-45.303,0-67.836,0c0,2.06,0,3.938,0,5.875
		c22.662,0,45.198,0,67.836,0C134.813,121.66,134.813,119.786,134.813,117.795z M66.913,137.31c22.736,0,45.267,0,67.828,0
		c0-2.074,0-4.001,0-5.862c-22.71,0-45.245,0-67.828,0C66.913,133.449,66.913,135.273,66.913,137.31z M134.816,144.948
		c-22.766,0-45.303,0-67.85,0c0,2.075,0,3.954,0,5.901c22.665,0,45.208,0,67.85,0C134.816,148.835,134.816,146.955,134.816,144.948z
		"/>
	<path fill-rule="evenodd" clip-rule="evenodd" fill="#FFDD15" d="M19.632,66.692c0,4.098,0.026,8.196-0.008,12.294
		c-0.023,3.109-1.287,4.383-4.345,4.436c-1.838,0.033-3.677,0.047-5.511-0.012c-2.412-0.077-3.602-1.188-3.895-3.576
		c-0.08-0.626-0.048-1.269-0.048-1.904c-0.003-7.703-0.011-15.404,0-23.106c0.004-4.109,1.151-5.232,5.314-5.249
		c1.415-0.006,2.83-0.049,4.241,0.015c2.952,0.136,4.214,1.421,4.24,4.384C19.663,58.213,19.632,62.453,19.632,66.692z"/>
	<path fill-rule="evenodd" clip-rule="evenodd" fill="#FFDD15" d="M182.433,66.581c0-4.103-0.022-8.208,0.005-12.31
		c0.024-3.147,1.356-4.502,4.51-4.599c1.629-0.052,3.258-0.061,4.881,0.005c2.918,0.115,4.242,1.404,4.285,4.358
		c0.073,4.741,0.024,9.481,0.026,14.223c0,3.323,0.011,6.649-0.004,9.972c-0.018,4.032-1.18,5.208-5.133,5.239
		c-1.346,0.011-2.689,0.032-4.03-0.007c-3.161-0.092-4.511-1.435-4.535-4.572C182.41,74.787,182.433,70.684,182.433,66.581z"/>
	<path fill-rule="evenodd" clip-rule="evenodd" fill="#1B75BB" d="M93.81,90.122c-18.028,0-35.926,0-53.991,0
		c0-13.483,0-26.955,0-40.577c17.914,0,35.86,0,53.991,0C93.81,62.964,93.81,76.43,93.81,90.122z"/>
	<path fill-rule="evenodd" clip-rule="evenodd" fill="#EC1C24" d="M161.63,90.11c-17.998,0-35.882,0-53.904,0
		c0-13.546,0-27.011,0-40.597c17.956,0,35.832,0,53.904,0C161.63,62.966,161.63,76.426,161.63,90.11z"/>
	<path fill-rule="evenodd" clip-rule="evenodd" fill="#FFFFFF" d="M66.908,35.816c0-4.421,0-8.657,0-13.066
		c22.542,0,45.078,0,67.793,0c0,4.236,0,8.57,0,13.066C112.171,35.816,89.639,35.816,66.908,35.816z"/>
	<path fill-rule="evenodd" clip-rule="evenodd" fill="#FFFFFF" d="M168.338,125.328c6.953,0.058,12.457,5.657,12.4,12.627
		c-0.057,6.874-5.898,12.615-12.666,12.452c-6.944-0.166-12.536-5.887-12.44-12.719C155.729,130.76,161.374,125.272,168.338,125.328
		z"/>
	<path fill-rule="evenodd" clip-rule="evenodd" fill="#FFFFFF" d="M20.484,137.815c0.002-6.965,5.541-12.492,12.519-12.492
		c6.937,0,12.598,5.621,12.595,12.5c-0.002,6.805-5.797,12.595-12.6,12.59C26.117,150.403,20.481,144.729,20.484,137.815z"/>
	<path fill-rule="evenodd" clip-rule="evenodd" fill="#FFFFFF" d="M134.813,117.795c0,1.991,0,3.865,0,5.875
		c-22.639,0-45.174,0-67.836,0c0-1.937,0-3.815,0-5.875C89.511,117.795,112.041,117.795,134.813,117.795z"/>
	<path fill-rule="evenodd" clip-rule="evenodd" fill="#FFFFFF" d="M66.913,137.31c0-2.036,0-3.86,0-5.862
		c22.583,0,45.118,0,67.828,0c0,1.861,0,3.788,0,5.862C112.18,137.31,89.648,137.31,66.913,137.31z"/>
	<path fill-rule="evenodd" clip-rule="evenodd" fill="#FFFFFF" d="M134.816,144.948c0,2.007,0,3.887,0,5.901
		c-22.642,0-45.186,0-67.85,0c0-1.947,0-3.826,0-5.901C89.514,144.948,112.051,144.948,134.816,144.948z"/>
</g>
</svg>
